<svg width="94" height="26" viewBox="0 0 94 26" fill="none" xmlns="http://www.w3.org/2000/svg">
<path d="M22.049 1.61182L17.6887 15.0268H14.3756L11.4434 5.94295L8.41593 15.0268H5.12189L0.742554 1.61182H3.94137L6.94981 11.0407L10.0915 1.61182H12.9476L15.9941 11.1173L19.0977 1.61182H22.049Z" fill="#FFD22E"/>
<path d="M32.835 9.91032C32.835 9.94865 32.816 10.2169 32.7779 10.7152H25.0284C25.1679 11.354 25.498 11.8587 26.0184 12.2292C26.5388 12.5997 27.1863 12.785 27.9606 12.785C28.4938 12.785 28.9634 12.7083 29.3696 12.555C29.7884 12.3889 30.1756 12.1334 30.5311 11.7884L32.1115 13.5132C31.1468 14.6247 29.7377 15.1805 27.8844 15.1805C26.7292 15.1805 25.7073 14.9569 24.8189 14.5098C23.9302 14.0498 23.2448 13.4174 22.7625 12.6125C22.2801 11.8076 22.0389 10.8941 22.0389 9.87199C22.0389 8.86267 22.2738 7.95556 22.7435 7.15065C23.2257 6.33297 23.8795 5.70056 24.7047 5.25338C25.5425 4.79345 26.4753 4.56348 27.5035 4.56348C28.5063 4.56348 29.4141 4.78066 30.2265 5.21505C31.0389 5.64946 31.6734 6.27549 32.1305 7.09317C32.6002 7.89806 32.835 8.83711 32.835 9.91032ZM27.5226 6.82487C26.8499 6.82487 26.2849 7.01651 25.828 7.39978C25.3711 7.78307 25.0918 8.30691 24.9902 8.97127H30.036C29.9344 8.31968 29.6552 7.80224 29.1983 7.41895C28.7412 7.0229 28.1827 6.82487 27.5226 6.82487Z" fill="#FFD22E"/>
<path d="M40.868 4.56334C41.8201 4.56334 42.6833 4.78691 43.4575 5.23409C44.2446 5.66847 44.8603 6.28812 45.3046 7.09303C45.7487 7.88515 45.971 8.81143 45.971 9.87185C45.971 10.9323 45.7487 11.8649 45.3046 12.6698C44.8603 13.462 44.2446 14.0816 43.4575 14.5288C42.6833 14.9632 41.8201 15.1804 40.868 15.1804C39.459 15.1804 38.3864 14.7332 37.6502 13.8389V15.027H34.8131V0.807129H37.7835V5.80902C38.5324 4.97855 39.5606 4.56334 40.868 4.56334ZM40.3539 12.7273C41.1156 12.7273 41.7376 12.4718 42.2199 11.9607C42.7151 11.4369 42.9625 10.7406 42.9625 9.87185C42.9625 9.00307 42.7151 8.31315 42.2199 7.80211C41.7376 7.27827 41.1156 7.01637 40.3539 7.01637C39.5924 7.01637 38.964 7.27827 38.4689 7.80211C37.9867 8.31315 37.7454 9.00307 37.7454 9.87185C37.7454 10.7406 37.9867 11.4369 38.4689 11.9607C38.964 12.4718 39.5924 12.7273 40.3539 12.7273Z" fill="#FFD22E"/>
<path d="M60.392 1.61182V15.0268H57.3073V9.52668H51.2524V15.0268H48.1678V1.61182H51.2524V6.90117H57.3073V1.61182H60.392Z" fill="#FFD22E"/>
<path d="M73.3678 9.91032C73.3678 9.94865 73.3487 10.2169 73.3108 10.7152H65.5611C65.7009 11.354 66.0308 11.8587 66.5514 12.2292C67.0718 12.5997 67.7191 12.785 68.4934 12.785C69.0265 12.785 69.4962 12.7083 69.9024 12.555C70.3214 12.3889 70.7085 12.1334 71.064 11.7884L72.6442 13.5132C71.6795 14.6247 70.2707 15.1805 68.4173 15.1805C67.2622 15.1805 66.2403 14.9569 65.3518 14.5098C64.4632 14.0498 63.7777 13.4174 63.2953 12.6125C62.813 11.8076 62.5719 10.8941 62.5719 9.87199C62.5719 8.86267 62.8067 7.95556 63.2764 7.15065C63.7587 6.33297 64.4125 5.70056 65.2375 5.25338C66.0752 4.79345 67.0083 4.56348 68.0365 4.56348C69.0393 4.56348 69.9468 4.78066 70.7592 5.21505C71.5716 5.64946 72.2064 6.27549 72.6633 7.09317C73.133 7.89806 73.3678 8.83711 73.3678 9.91032ZM68.0555 6.82487C67.3829 6.82487 66.8179 7.01651 66.361 7.39978C65.9039 7.78307 65.6246 8.30691 65.5232 8.97127H70.5688C70.4674 8.31968 70.1881 7.80224 69.7311 7.41895C69.2741 7.0229 68.7156 6.82487 68.0555 6.82487Z" fill="#FFD22E"/>
<path d="M78.1852 6.07746C78.5407 5.57918 79.0167 5.20228 79.6133 4.94677C80.2227 4.69123 80.9207 4.56348 81.7078 4.56348V7.32314C81.3778 7.29758 81.1556 7.28481 81.0414 7.28481C80.1909 7.28481 79.5245 7.52756 79.0422 8.01304C78.5598 8.48576 78.3186 9.20124 78.3186 10.1594V15.0272H75.3483V4.71679H78.1852V6.07746Z" fill="#FFD22E"/>
<path d="M88.2528 15.1805C87.1737 15.1805 86.2028 14.9569 85.3396 14.5098C84.4891 14.0498 83.8227 13.4174 83.3403 12.6125C82.858 11.8076 82.6167 10.8941 82.6167 9.87199C82.6167 8.8499 82.858 7.93639 83.3403 7.1315C83.8227 6.32659 84.4891 5.70056 85.3396 5.25338C86.2028 4.79345 87.1737 4.56348 88.2528 4.56348C89.3317 4.56348 90.2964 4.79345 91.1469 5.25338C91.9975 5.70056 92.6639 6.32659 93.1463 7.1315C93.6286 7.93639 93.8697 8.8499 93.8697 9.87199C93.8697 10.8941 93.6286 11.8076 93.1463 12.6125C92.6639 13.4174 91.9975 14.0498 91.1469 14.5098C90.2964 14.9569 89.3317 15.1805 88.2528 15.1805ZM88.2528 12.7275C89.0143 12.7275 89.6365 12.472 90.1188 11.9609C90.6138 11.4371 90.8614 10.7408 90.8614 9.87199C90.8614 9.00321 90.6138 8.31329 90.1188 7.80224C89.6365 7.27841 89.0143 7.01651 88.2528 7.01651C87.4911 7.01651 86.8629 7.27841 86.3678 7.80224C85.8728 8.31329 85.6252 9.00321 85.6252 9.87199C85.6252 10.7408 85.8728 11.4371 86.3678 11.9609C86.8629 12.472 87.4911 12.7275 88.2528 12.7275Z" fill="#FFD22E"/>
<path d="M60.9062 25.7931C60.333 25.7931 59.7781 25.7054 59.2413 25.5302C58.712 25.3478 58.2947 25.1141 57.9901 24.8294L58.3927 23.9752C58.6828 24.238 59.0528 24.4534 59.5025 24.6213C59.9596 24.782 60.4273 24.8623 60.9062 24.8623C61.5371 24.8623 62.0087 24.7563 62.3205 24.5446C62.6324 24.3257 62.7885 24.0373 62.7885 23.6795C62.7885 23.4168 62.7014 23.2049 62.5273 23.0445C62.3604 22.8765 62.1501 22.7488 61.8962 22.6612C61.6496 22.5735 61.2979 22.475 60.8408 22.3655C60.2678 22.2267 59.8036 22.088 59.4481 21.9492C59.0999 21.8106 58.7989 21.5989 58.545 21.3142C58.2983 21.0222 58.1752 20.6316 58.1752 20.1423C58.1752 19.7335 58.2802 19.3648 58.4907 19.0363C58.7084 18.7078 59.0347 18.4449 59.4699 18.2478C59.905 18.0507 60.4454 17.9521 61.0911 17.9521C61.5407 17.9521 61.9833 18.0106 62.4185 18.1274C62.8537 18.2442 63.2273 18.4121 63.5391 18.6311L63.18 19.5072C62.8609 19.3028 62.5201 19.1495 62.1574 19.0473C61.7946 18.9378 61.4393 18.883 61.0911 18.883C60.4746 18.883 60.0103 18.9962 59.6984 19.2225C59.3938 19.4487 59.2413 19.7408 59.2413 20.0985C59.2413 20.3614 59.3284 20.5768 59.5025 20.7447C59.6767 20.9052 59.8906 21.0331 60.1445 21.128C60.4056 21.2156 60.7575 21.3105 61.1999 21.4127C61.7729 21.5514 62.2334 21.6902 62.5817 21.8288C62.9299 21.9674 63.2273 22.1793 63.4739 22.4641C63.7276 22.7488 63.8546 23.1321 63.8546 23.6139C63.8546 24.0154 63.7459 24.3841 63.5283 24.7199C63.3106 25.0483 62.9806 25.3112 62.5382 25.5083C62.0956 25.6981 61.5516 25.7931 60.9062 25.7931Z" fill="white"/>
<path d="M67.8047 25.7715C67.217 25.7715 66.6913 25.6438 66.2269 25.3882C65.77 25.1326 65.4109 24.7823 65.1498 24.3369C64.8886 23.8842 64.7581 23.3732 64.7581 22.8038C64.7581 22.2343 64.8886 21.7269 65.1498 21.2815C65.4109 20.829 65.77 20.4785 66.2269 20.2302C66.6913 19.9748 67.217 19.8469 67.8047 19.8469C68.327 19.8469 68.7911 19.953 69.1973 20.1646C69.6108 20.3763 69.9298 20.6829 70.1548 21.0844L69.3605 21.5992C69.1792 21.3218 68.9543 21.1138 68.6859 20.9749C68.4175 20.8363 68.1201 20.7669 67.7938 20.7669C67.4166 20.7669 67.0756 20.8509 66.771 21.0188C66.4736 21.1866 66.2378 21.4276 66.0638 21.7415C65.897 22.0481 65.8135 22.4023 65.8135 22.8038C65.8135 23.2125 65.897 23.574 66.0638 23.8879C66.2378 24.1946 66.4736 24.4318 66.771 24.5998C67.0756 24.7678 67.4166 24.8515 67.7938 24.8515C68.1201 24.8515 68.4175 24.7823 68.6859 24.6435C68.9543 24.5049 69.1792 24.2968 69.3605 24.0194L70.1548 24.5231C69.9298 24.9246 69.6108 25.2348 69.1973 25.454C68.7911 25.6657 68.327 25.7715 67.8047 25.7715Z" fill="white"/>
<path d="M74.5126 19.8461C75.2451 19.8461 75.8255 20.0616 76.2534 20.4923C76.6886 20.9158 76.9063 21.54 76.9063 22.365V25.7049H75.8617V22.4854C75.8617 21.9232 75.7275 21.4999 75.4592 21.2152C75.1908 20.9304 74.8063 20.788 74.3057 20.788C73.74 20.788 73.294 20.9559 72.9676 21.2917C72.6411 21.6203 72.4779 22.0949 72.4779 22.7153V25.7049H71.4333V17.5793H72.4779V20.7224C72.6956 20.4449 72.9785 20.2294 73.3265 20.0762C73.682 19.9228 74.0774 19.8461 74.5126 19.8461Z" fill="white"/>
<path d="M81.3412 25.7715C80.7682 25.7715 80.2532 25.6438 79.7963 25.3882C79.3392 25.1326 78.9803 24.7823 78.7191 24.3369C78.4652 23.8842 78.3383 23.3732 78.3383 22.8038C78.3383 22.2343 78.4652 21.7269 78.7191 21.2815C78.9803 20.829 79.3392 20.4785 79.7963 20.2302C80.2532 19.9748 80.7682 19.8469 81.3412 19.8469C81.9142 19.8469 82.4256 19.9748 82.8753 20.2302C83.3324 20.4785 83.6877 20.829 83.9416 21.2815C84.2027 21.7269 84.3333 22.2343 84.3333 22.8038C84.3333 23.3732 84.2027 23.8842 83.9416 24.3369C83.6877 24.7823 83.3324 25.1326 82.8753 25.3882C82.4256 25.6438 81.9142 25.7715 81.3412 25.7715ZM81.3412 24.8515C81.7112 24.8515 82.0412 24.7678 82.3313 24.5998C82.6288 24.4245 82.8608 24.1835 83.0276 23.8769C83.1946 23.563 83.2779 23.2053 83.2779 22.8038C83.2779 22.4023 83.1946 22.0481 83.0276 21.7415C82.8608 21.4276 82.6288 21.1866 82.3313 21.0188C82.0412 20.8509 81.7112 20.7669 81.3412 20.7669C80.9712 20.7669 80.6377 20.8509 80.3403 21.0188C80.0502 21.1866 79.818 21.4276 79.644 21.7415C79.477 22.0481 79.3937 22.4023 79.3937 22.8038C79.3937 23.2053 79.477 23.563 79.644 23.8769C79.818 24.1835 80.0502 24.4245 80.3403 24.5998C80.6377 24.7678 80.9712 24.8515 81.3412 24.8515Z" fill="white"/>
<path d="M88.2452 25.7715C87.672 25.7715 87.1572 25.6438 86.7001 25.3882C86.2432 25.1326 85.8841 24.7823 85.6229 24.3369C85.369 23.8842 85.2421 23.3732 85.2421 22.8038C85.2421 22.2343 85.369 21.7269 85.6229 21.2815C85.8841 20.829 86.2432 20.4785 86.7001 20.2302C87.1572 19.9748 87.672 19.8469 88.2452 19.8469C88.8182 19.8469 89.3296 19.9748 89.7793 20.2302C90.2362 20.4785 90.5917 20.829 90.8456 21.2815C91.1067 21.7269 91.2373 22.2343 91.2373 22.8038C91.2373 23.3732 91.1067 23.8842 90.8456 24.3369C90.5917 24.7823 90.2362 25.1326 89.7793 25.3882C89.3296 25.6438 88.8182 25.7715 88.2452 25.7715ZM88.2452 24.8515C88.615 24.8515 88.9452 24.7678 89.2353 24.5998C89.5326 24.4245 89.7648 24.1835 89.9316 23.8769C90.0984 23.563 90.1819 23.2053 90.1819 22.8038C90.1819 22.4023 90.0984 22.0481 89.9316 21.7415C89.7648 21.4276 89.5326 21.1866 89.2353 21.0188C88.9452 20.8509 88.615 20.7669 88.2452 20.7669C87.8752 20.7669 87.5415 20.8509 87.2441 21.0188C86.954 21.1866 86.7218 21.4276 86.5478 21.7415C86.381 22.0481 86.2975 22.4023 86.2975 22.8038C86.2975 23.2053 86.381 23.563 86.5478 23.8769C86.7218 24.1835 86.954 24.4245 87.2441 24.5998C87.5415 24.7678 87.8752 24.8515 88.2452 24.8515Z" fill="white"/>
<path d="M92.6843 17.5793H93.7289V25.7049H92.6843V17.5793Z" fill="white"/>
</svg>
